<svg width="1728" height="136" viewBox="0 0 1728 136" fill="none" xmlns="http://www.w3.org/2000/svg">
<path d="M561.897 79L562.702 56.635H568.04L572.852 71.965H573.08L577.892 56.635H583.23L584.035 79H580.622L580.36 70.0575L580.115 60.3275H579.835L574.725 76.41H571.207L566.097 60.3275H565.817L565.555 70.075L565.31 79H561.897ZM586.918 79L593.778 56.635H599.221L606.081 79H602.528L596.718 58.98H596.281L590.471 79H586.918ZM591.398 72.7525V69.8475H601.566V72.7525H591.398ZM615.632 79.42C614.57 79.42 613.59 79.3383 612.692 79.175C611.793 79.0117 610.988 78.8075 610.277 78.5625C609.577 78.3175 608.982 78.0725 608.492 77.8275L608.159 74.38C609.058 74.8933 610.119 75.3483 611.344 75.745C612.581 76.1417 613.917 76.34 615.352 76.34C616.985 76.34 618.187 76.0717 618.957 75.535C619.727 74.9867 620.112 74.1642 620.112 73.0675V72.805C620.112 72.0933 619.954 71.51 619.639 71.055C619.336 70.5883 618.817 70.1917 618.082 69.865C617.347 69.5267 616.349 69.2058 615.089 68.9025C613.433 68.4942 612.091 68.0158 611.064 67.4675C610.049 66.9075 609.308 66.2133 608.842 65.385C608.375 64.545 608.142 63.5008 608.142 62.2525V62.0775C608.142 60.1992 608.766 58.7525 610.014 57.7375C611.263 56.7225 613.135 56.215 615.632 56.215C617.23 56.215 618.595 56.3725 619.727 56.6875C620.87 56.9908 621.809 57.335 622.544 57.72L622.859 60.9225C622.008 60.4325 621.028 60.0242 619.919 59.6975C618.811 59.3592 617.563 59.19 616.174 59.19C615.089 59.19 614.22 59.3125 613.567 59.5575C612.913 59.7908 612.441 60.135 612.149 60.59C611.858 61.0333 611.712 61.57 611.712 62.2V62.27C611.712 62.9233 611.858 63.4833 612.149 63.95C612.441 64.4167 612.954 64.8308 613.689 65.1925C614.436 65.5425 615.492 65.8925 616.857 66.2425C618.478 66.6508 619.785 67.1117 620.777 67.625C621.78 68.1267 622.515 68.7858 622.982 69.6025C623.448 70.4075 623.682 71.4692 623.682 72.7875V73.1375C623.682 75.2025 623.011 76.7658 621.669 77.8275C620.328 78.8892 618.315 79.42 615.632 79.42ZM652.547 79.735L643.027 79.455C639.515 79.35 636.954 78.5275 635.344 76.9875C633.746 75.4358 632.947 73.1958 632.947 70.2675V65.35C632.947 62.41 633.699 60.1467 635.204 58.56C636.721 56.9733 638.938 56.18 641.854 56.18C643.803 56.18 645.436 56.5358 646.754 57.2475C648.073 57.9592 649.07 58.9975 649.747 60.3625C650.424 61.7275 650.762 63.39 650.762 65.35V69.7075C650.762 70.8158 650.639 71.7783 650.394 72.595C650.161 73.4117 649.823 74.1 649.379 74.66C648.948 75.2083 648.429 75.6517 647.822 75.99C647.215 76.3167 646.539 76.5442 645.792 76.6725V76.8475L652.547 76.6725V79.735ZM642.397 76.515L642.817 76.5325C643.412 76.4042 643.972 76.1942 644.497 75.9025C645.034 75.5992 645.5 75.2025 645.897 74.7125C646.305 74.2225 646.62 73.6217 646.842 72.91C647.075 72.1983 647.192 71.3642 647.192 70.4075V65.21C647.192 63.25 646.743 61.745 645.844 60.695C644.958 59.6333 643.628 59.1025 641.854 59.1025C640.081 59.1025 638.745 59.6333 637.847 60.695C636.96 61.745 636.517 63.25 636.517 65.21V70.4075C636.517 72.3558 637.024 73.8433 638.039 74.87C639.066 75.885 640.519 76.4333 642.397 76.515ZM663.323 79.455C660.418 79.455 658.277 78.7258 656.901 77.2675C655.524 75.7975 654.836 73.6567 654.836 70.845V56.635H658.353V70.95C658.353 72.7467 658.738 74.1175 659.508 75.0625C660.29 75.9958 661.562 76.4625 663.323 76.4625C665.085 76.4625 666.351 75.9958 667.121 75.0625C667.902 74.1175 668.293 72.7467 668.293 70.95V56.635H671.811V70.845C671.811 73.6567 671.122 75.7975 669.746 77.2675C668.381 78.7258 666.24 79.455 663.323 79.455ZM676.612 79V56.635H680.077V79H676.612ZM677.645 79V76.06H690.962V79H677.645ZM678.607 69.06V66.155H690.577V69.06H678.607ZM677.627 59.5575V56.635H690.84V59.5575H677.627ZM709.5 79.455C706.595 79.455 704.454 78.7258 703.078 77.2675C701.701 75.7975 701.013 73.6567 701.013 70.845V56.635H704.53V70.95C704.53 72.7467 704.915 74.1175 705.685 75.0625C706.467 75.9958 707.738 76.4625 709.5 76.4625C711.262 76.4625 712.528 75.9958 713.298 75.0625C714.079 74.1175 714.47 72.7467 714.47 70.95V56.635H717.988V70.845C717.988 73.6567 717.299 75.7975 715.923 77.2675C714.558 78.7258 712.417 79.455 709.5 79.455ZM728.039 56.635L736.282 75.185H736.492L736.352 65.525V56.635H739.764V79H734.637L726.272 60.24H726.062L726.202 70.3025V79H722.789V56.635H728.039ZM750.851 79V56.635H754.316V79H750.851ZM751.883 79V76.06H765.201V79H751.883ZM752.846 69.06V66.155H764.816V69.06H752.846ZM751.866 59.5575V56.635H765.078V59.5575H751.866ZM787.967 79.735L778.447 79.455C774.935 79.35 772.374 78.5275 770.764 76.9875C769.166 75.4358 768.367 73.1958 768.367 70.2675V65.35C768.367 62.41 769.119 60.1467 770.624 58.56C772.141 56.9733 774.358 56.18 777.274 56.18C779.223 56.18 780.856 56.5358 782.174 57.2475C783.493 57.9592 784.49 58.9975 785.167 60.3625C785.843 61.7275 786.182 63.39 786.182 65.35V69.7075C786.182 70.8158 786.059 71.7783 785.814 72.595C785.581 73.4117 785.243 74.1 784.799 74.66C784.368 75.2083 783.848 75.6517 783.242 75.99C782.635 76.3167 781.958 76.5442 781.212 76.6725V76.8475L787.967 76.6725V79.735ZM777.817 76.515L778.237 76.5325C778.832 76.4042 779.392 76.1942 779.917 75.9025C780.453 75.5992 780.92 75.2025 781.317 74.7125C781.725 74.2225 782.04 73.6217 782.262 72.91C782.495 72.1983 782.612 71.3642 782.612 70.4075V65.21C782.612 63.25 782.163 61.745 781.264 60.695C780.378 59.6333 779.048 59.1025 777.274 59.1025C775.501 59.1025 774.165 59.6333 773.267 60.695C772.38 61.745 771.937 63.25 771.937 65.21V70.4075C771.937 72.3558 772.444 73.8433 773.459 74.87C774.486 75.885 775.938 76.4333 777.817 76.515ZM798.743 79.455C795.838 79.455 793.697 78.7258 792.321 77.2675C790.944 75.7975 790.256 73.6567 790.256 70.845V56.635H793.773V70.95C793.773 72.7467 794.158 74.1175 794.928 75.0625C795.71 75.9958 796.982 76.4625 798.743 76.4625C800.505 76.4625 801.771 75.9958 802.541 75.0625C803.322 74.1175 803.713 72.7467 803.713 70.95V56.635H807.231V70.845C807.231 73.6567 806.542 75.7975 805.166 77.2675C803.801 78.7258 801.66 79.455 798.743 79.455ZM815.567 79H812.05V56.635H815.567V79ZM822.853 71.825V68.92H829.031C830.431 68.92 831.446 68.5758 832.076 67.8875C832.717 67.1875 833.038 66.2192 833.038 64.9825V63.46C833.038 62.1883 832.723 61.2142 832.093 60.5375C831.463 59.8608 830.454 59.5225 829.066 59.5225H822.836V56.635H829.136C831.702 56.635 833.575 57.23 834.753 58.42C835.943 59.5983 836.538 61.2492 836.538 63.3725V65.07C836.538 67.1933 835.943 68.85 834.753 70.04C833.563 71.23 831.685 71.825 829.118 71.825H822.853ZM820.543 79V56.635H823.991V69.7775L824.008 71.3525V79H820.543ZM848.539 79.455C845.622 79.455 843.406 78.6617 841.889 77.075C840.384 75.4883 839.631 73.2192 839.631 70.2675V65.35C839.631 62.41 840.384 60.1467 841.889 58.56C843.406 56.9733 845.622 56.18 848.539 56.18C851.456 56.18 853.666 56.9733 855.171 58.56C856.688 60.1467 857.446 62.41 857.446 65.35V70.2675C857.446 73.2192 856.688 75.4883 855.171 77.075C853.666 78.6617 851.456 79.455 848.539 79.455ZM848.539 76.5325C850.312 76.5325 851.642 76.0017 852.529 74.94C853.427 73.8667 853.876 72.3558 853.876 70.4075V65.21C853.876 63.25 853.427 61.745 852.529 60.695C851.642 59.6333 850.312 59.1025 848.539 59.1025C846.766 59.1025 845.43 59.6333 844.531 60.695C843.645 61.745 843.201 63.25 843.201 65.21V70.4075C843.201 72.3558 843.645 73.8667 844.531 74.94C845.43 76.0017 846.766 76.5325 848.539 76.5325ZM874.167 79.42C873.105 79.42 872.125 79.3383 871.227 79.175C870.329 79.0117 869.524 78.8075 868.812 78.5625C868.112 78.3175 867.517 78.0725 867.027 77.8275L866.694 74.38C867.593 74.8933 868.654 75.3483 869.879 75.745C871.116 76.1417 872.452 76.34 873.887 76.34C875.52 76.34 876.722 76.0717 877.492 75.535C878.262 74.9867 878.647 74.1642 878.647 73.0675V72.805C878.647 72.0933 878.489 71.51 878.174 71.055C877.871 70.5883 877.352 70.1917 876.617 69.865C875.882 69.5267 874.884 69.2058 873.624 68.9025C871.968 68.4942 870.626 68.0158 869.599 67.4675C868.584 66.9075 867.844 66.2133 867.377 65.385C866.91 64.545 866.677 63.5008 866.677 62.2525V62.0775C866.677 60.1992 867.301 58.7525 868.549 57.7375C869.798 56.7225 871.67 56.215 874.167 56.215C875.765 56.215 877.13 56.3725 878.262 56.6875C879.405 56.9908 880.344 57.335 881.079 57.72L881.394 60.9225C880.543 60.4325 879.563 60.0242 878.454 59.6975C877.346 59.3592 876.098 59.19 874.709 59.19C873.624 59.19 872.755 59.3125 872.102 59.5575C871.449 59.7908 870.976 60.135 870.684 60.59C870.393 61.0333 870.247 61.57 870.247 62.2V62.27C870.247 62.9233 870.393 63.4833 870.684 63.95C870.976 64.4167 871.489 64.8308 872.224 65.1925C872.971 65.5425 874.027 65.8925 875.392 66.2425C877.014 66.6508 878.32 67.1117 879.312 67.625C880.315 68.1267 881.05 68.7858 881.517 69.6025C881.984 70.4075 882.217 71.4692 882.217 72.7875V73.1375C882.217 75.2025 881.546 76.7658 880.204 77.8275C878.863 78.8892 876.85 79.42 874.167 79.42ZM894.203 79.455C891.286 79.455 889.07 78.6617 887.553 77.075C886.048 75.4883 885.296 73.2192 885.296 70.2675V65.35C885.296 62.41 886.048 60.1467 887.553 58.56C889.07 56.9733 891.286 56.18 894.203 56.18C897.12 56.18 899.331 56.9733 900.836 58.56C902.352 60.1467 903.111 62.41 903.111 65.35V70.2675C903.111 73.2192 902.352 75.4883 900.836 77.075C899.331 78.6617 897.12 79.455 894.203 79.455ZM894.203 76.5325C895.976 76.5325 897.306 76.0017 898.193 74.94C899.091 73.8667 899.541 72.3558 899.541 70.4075V65.21C899.541 63.25 899.091 61.745 898.193 60.695C897.306 59.6333 895.976 59.1025 894.203 59.1025C892.43 59.1025 891.094 59.6333 890.196 60.695C889.309 61.745 888.866 63.25 888.866 65.21V70.4075C888.866 72.3558 889.309 73.8667 890.196 74.94C891.094 76.0017 892.43 76.5325 894.203 76.5325ZM906.839 79L907.644 56.635H912.981L917.794 71.965H918.021L922.834 56.635H928.171L928.976 79H925.564L925.301 70.0575L925.056 60.3275H924.776L919.666 76.41H916.149L911.039 60.3275H910.759L910.496 70.075L910.251 79H906.839ZM941.61 79.455C938.694 79.455 936.477 78.6617 934.96 77.075C933.455 75.4883 932.703 73.2192 932.703 70.2675V65.35C932.703 62.41 933.455 60.1467 934.96 58.56C936.477 56.9733 938.694 56.18 941.61 56.18C944.527 56.18 946.738 56.9733 948.243 58.56C949.759 60.1467 950.518 62.41 950.518 65.35V70.2675C950.518 73.2192 949.759 75.4883 948.243 77.075C946.738 78.6617 944.527 79.455 941.61 79.455ZM941.61 76.5325C943.384 76.5325 944.714 76.0017 945.6 74.94C946.499 73.8667 946.948 72.3558 946.948 70.4075V65.21C946.948 63.25 946.499 61.745 945.6 60.695C944.714 59.6333 943.384 59.1025 941.61 59.1025C939.837 59.1025 938.501 59.6333 937.603 60.695C936.716 61.745 936.273 63.25 936.273 65.21V70.4075C936.273 72.3558 936.716 73.8667 937.603 74.94C938.501 76.0017 939.837 76.5325 941.61 76.5325ZM961.052 79.42C959.99 79.42 959.01 79.3383 958.112 79.175C957.213 79.0117 956.408 78.8075 955.697 78.5625C954.997 78.3175 954.402 78.0725 953.912 77.8275L953.579 74.38C954.477 74.8933 955.539 75.3483 956.764 75.745C958.001 76.1417 959.337 76.34 960.772 76.34C962.405 76.34 963.607 76.0717 964.377 75.535C965.147 74.9867 965.532 74.1642 965.532 73.0675V72.805C965.532 72.0933 965.374 71.51 965.059 71.055C964.756 70.5883 964.237 70.1917 963.502 69.865C962.767 69.5267 961.769 69.2058 960.509 68.9025C958.852 68.4942 957.511 68.0158 956.484 67.4675C955.469 66.9075 954.728 66.2133 954.262 65.385C953.795 64.545 953.562 63.5008 953.562 62.2525V62.0775C953.562 60.1992 954.186 58.7525 955.434 57.7375C956.682 56.7225 958.555 56.215 961.052 56.215C962.65 56.215 964.015 56.3725 965.147 56.6875C966.29 56.9908 967.229 57.335 967.964 57.72L968.279 60.9225C967.427 60.4325 966.447 60.0242 965.339 59.6975C964.231 59.3592 962.982 59.19 961.594 59.19C960.509 59.19 959.64 59.3125 958.987 59.5575C958.333 59.7908 957.861 60.135 957.569 60.59C957.277 61.0333 957.132 61.57 957.132 62.2V62.27C957.132 62.9233 957.277 63.4833 957.569 63.95C957.861 64.4167 958.374 64.8308 959.109 65.1925C959.856 65.5425 960.912 65.8925 962.277 66.2425C963.898 66.6508 965.205 67.1117 966.197 67.625C967.2 68.1267 967.935 68.7858 968.402 69.6025C968.868 70.4075 969.102 71.4692 969.102 72.7875V73.1375C969.102 75.2025 968.431 76.7658 967.089 77.8275C965.747 78.8892 963.735 79.42 961.052 79.42ZM987.449 79.455C984.544 79.455 982.403 78.7258 981.027 77.2675C979.65 75.7975 978.962 73.6567 978.962 70.845V56.635H982.479V70.95C982.479 72.7467 982.864 74.1175 983.634 75.0625C984.416 75.9958 985.688 76.4625 987.449 76.4625C989.211 76.4625 990.477 75.9958 991.247 75.0625C992.028 74.1175 992.419 72.7467 992.419 70.95V56.635H995.937V70.845C995.937 73.6567 995.248 75.7975 993.872 77.2675C992.507 78.7258 990.366 79.455 987.449 79.455ZM1005.99 56.635L1014.23 75.185H1014.44L1014.3 65.525V56.635H1017.71V79H1012.59L1004.22 60.24H1004.01L1004.15 70.3025V79H1000.74V56.635H1005.99ZM1020.93 79L1027.79 56.635H1033.23L1040.09 79H1036.54L1030.73 58.98H1030.29L1024.48 79H1020.93ZM1025.41 72.7525V69.8475H1035.58V72.7525H1025.41ZM1049.44 79V56.635H1052.94V79H1049.44ZM1051.44 70.005V67.065H1062.99V70.005H1051.44ZM1050.46 59.575V56.635H1063.25V59.575H1050.46ZM1064.13 79L1070.99 56.635H1076.44L1083.3 79H1079.74L1073.93 58.98H1073.5L1067.69 79H1064.13ZM1068.61 72.7525V69.8475H1078.78V72.7525H1068.61ZM1086.18 79L1086.98 56.635H1092.32L1097.13 71.965H1097.36L1102.17 56.635H1107.51L1108.32 79H1104.9L1104.64 70.0575L1104.4 60.3275H1104.12L1099.01 76.41H1095.49L1090.38 60.3275H1090.1L1089.84 70.075L1089.59 79H1086.18ZM1116.49 79H1112.97V56.635H1116.49V79ZM1124.98 79H1121.46V56.635H1124.98V79ZM1123.39 76.025H1135.11V79H1123.39V76.025ZM1142.12 79H1138.6V56.635H1142.12V79ZM1145.35 79L1152.21 56.635H1157.65L1164.51 79H1160.96L1155.15 58.98H1154.71L1148.9 79H1145.35ZM1149.83 72.7525V69.8475H1159.99V72.7525H1149.83Z" fill="#454545"/>
<line x1="-0.00195312" y1="68.0549" x2="533.002" y2="68.0549" stroke="black" stroke-opacity="0.2" stroke-width="2"/>
<line x1="0.00512695" y1="85.6661" x2="1727.01" y2="85.6661" stroke="black" stroke-opacity="0.2" stroke-width="2"/>
<line x1="1189" y1="69.6819" x2="1727.01" y2="69.6819" stroke="black" stroke-opacity="0.2" stroke-width="2"/>
</svg>
